<?xml version="1.0" encoding="UTF-8" standalone="no"?>
<svg
   xmlns:dc="http://purl.org/dc/elements/1.1/"
   xmlns:cc="http://creativecommons.org/ns#"
   xmlns:rdf="http://www.w3.org/1999/02/22-rdf-syntax-ns#"
   xmlns:svg="http://www.w3.org/2000/svg"
   xmlns="http://www.w3.org/2000/svg"
   xmlns:sodipodi="http://sodipodi.sourceforge.net/DTD/sodipodi-0.dtd"
   xmlns:inkscape="http://www.inkscape.org/namespaces/inkscape"
   version="1.1"
   x="0px"
   y="0px"
   width="48px"
   height="48px"
   viewBox="0 0 48 48"
   id="svg41"
   sodipodi:docname="icon-success.svg"
   inkscape:version="0.92.1 r15371">
  <metadata
     id="metadata47">
    <rdf:RDF>
      <cc:Work
         rdf:about="">
        <dc:format>image/svg+xml</dc:format>
        <dc:type
           rdf:resource="http://purl.org/dc/dcmitype/StillImage" />
      </cc:Work>
    </rdf:RDF>
  </metadata>
  <defs
     id="defs45" />
  <sodipodi:namedview
     pagecolor="#ffffff"
     bordercolor="#666666"
     borderopacity="1"
     objecttolerance="10"
     gridtolerance="10"
     guidetolerance="10"
     inkscape:pageopacity="0"
     inkscape:pageshadow="2"
     inkscape:window-width="640"
     inkscape:window-height="480"
     id="namedview43"
     showgrid="false"
     inkscape:zoom="27.812867"
     inkscape:cx="24.01551"
     inkscape:cy="27.924248"
     inkscape:current-layer="svg41" />
  <title
     id="title2">Success</title>
  <radialGradient
     id="SVGID_1_"
     cx="-20.6494"
     cy="-408.3594"
     r="17.25"
     gradientTransform="matrix(1.1594 0 0 -0.5024 48.4624 -167.4174)"
     gradientUnits="userSpaceOnUse">
    <stop
       offset="0"
       stop-color="#000000"
       id="stop4" />
    <stop
       offset="1"
       stop-color="#000000"
       stop-opacity="0"
       id="stop6" />
  </radialGradient>
  <path
     opacity="0.6443"
     fill="url(#SVGID_1_)"
     d="M44.521,37.748c0,4.787-8.955,8.667-20,8.667c-11.046,0-20-3.88-20-8.667c0-4.786,8.954-8.666,20-8.666C35.566,29.082,44.521,32.962,44.521,37.748z"
     id="path9" />
  <radialGradient
     id="SVGID_2_"
     cx="14.4424"
     cy="21.6055"
     r="29.7564"
     gradientTransform="matrix(1.0284 0 0 -1.0284 9.7477 34.6175)"
     gradientUnits="userSpaceOnUse">
    <stop
       offset="0"
       stop-color="#08F000"
       id="stop11" />
    <stop
       offset="1"
       stop-color="#0B7B00"
       id="stop13" />
  </radialGradient>
  <path
     fill="url(#SVGID_2_)"
     stroke="#197A1B"
     stroke-width="1.4896"
     d="M43.451,23.024c0,10.756-8.72,19.476-19.476,19.476C13.219,42.5,4.5,33.78,4.5,23.024l0,0c0-10.756,8.719-19.476,19.475-19.476C34.731,3.549,43.451,12.268,43.451,23.024L43.451,23.024z"
     id="path16" />
  <radialGradient
     id="SVGID_3_"
     cx="15.9395"
     cy="12.6724"
     r="18.6239"
     gradientTransform="matrix(1.0282 0 0 -1.0282 7.6104 28.4839)"
     gradientUnits="userSpaceOnUse">
    <stop
       offset="0"
       stop-color="#FFFFFF"
       id="stop18" />
    <stop
       offset="1"
       stop-color="#DFDFDF"
       id="stop20" />
  </radialGradient>
  <path
     fill="url(#SVGID_3_)"
     d="M38.543,22.748c0,8.033-6.512,14.545-14.545,14.545S9.453,30.781,9.453,22.748l0,0c0-8.033,6.512-14.545,14.545-14.545S38.543,14.715,38.543,22.748z"
     id="path23" />
  <linearGradient
     id="SVGID_4_"
     gradientUnits="userSpaceOnUse"
     x1="-281.5"
     y1="420.5"
     x2="-280.5"
     y2="420.5">
    <stop
       offset="0"
       stop-color="#FFFFFF"
       id="stop25" />
    <stop
       offset="1"
       stop-color="#FFFFFF"
       stop-opacity="0"
       id="stop27" />
  </linearGradient>
  <path
     opacity="0.3763"
     fill="none"
     stroke="url(#SVGID_4_)"
     stroke-width="1.5891"
     d="M42.232,23.024c0,10.083-8.174,18.257-18.257,18.257c-10.083,0-18.256-8.174-18.256-18.257l0,0c0-10.083,8.174-18.256,18.256-18.256C34.059,4.768,42.232,12.941,42.232,23.024L42.232,23.024z"
     id="path30" />
  <path
     d="m 29.714,12.752 c -0.311,-0.032 -0.62,0.121 -0.779,0.413 L 22.133,25.611 17.76,22.134 c -0.391,-0.213 -0.876,-0.076 -1.089,0.313 l -1.961,2.518 c -0.214,0.39 -0.069,0.875 0.319,1.088 0,0 7.986,6.596 7.996,6.601 0.091,0.05 0.187,0.075 0.284,0.087 0.316,0.04 0.641,-0.108 0.804,-0.407 l 9.173,-16.785 c 0.214,-0.39 0.07,-0.875 -0.319,-1.088 l -2.943,-1.615 c -0.098,-0.054 -0.207,-0.083 -0.31,-0.094 z"
     id="path32"
     inkscape:connector-curvature="0"
     style="fill:#089600;stroke:#197a1b;stroke-width:0.95599997;stroke-linecap:round;stroke-linejoin:round" />
  <linearGradient
     id="SVGID_5_"
     gradientUnits="userSpaceOnUse"
     x1="-281.5"
     y1="420.5"
     x2="-280.5"
     y2="420.5">
    <stop
       offset="0"
       stop-color="#FFFFFF"
       id="stop34" />
    <stop
       offset="1"
       stop-color="#FFFFFF"
       stop-opacity="0"
       id="stop36" />
  </linearGradient>
  <path
     opacity="0.38"
     fill="none"
     stroke="url(#SVGID_5_)"
     stroke-width="0.956"
     stroke-linecap="round"
     stroke-linejoin="round"
     d="M29.288,13.707l-3.447,6.333l-3.071,5.585c-0.1,0.1-0.069,0.418-0.501,0.528c-0.3,0.077-0.354-0.035-0.669-0.237l-3.858-3.048c-0.429-0.345-0.416-0.327-0.721-0.021l-1.549,1.954c-0.418,0.447-0.354,0.717,0.167,1.051c0,0,7.261,5.984,7.27,5.989c0.087,0.047,0.05,0.063,0.421,0.32c0.238,0.166,0.448-0.359,0.602-0.64l8.828-16.108c0.2-0.366,0.185-0.361-0.185-0.563l-2.632-1.396C29.563,13.249,29.561,13.251,29.288,13.707z"
     id="path39" />
</svg>
